<?xml version="1.0" encoding="UTF-8" standalone="no"?>
<!-- Created with Inkscape (http://www.inkscape.org/) -->

<svg
   width="1080"
   height="1920"
   viewBox="0 0 285.75 508"
   version="1.1"
   id="svg1"
   inkscape:version="1.3.2 (091e20e, 2023-11-25, custom)"
   sodipodi:docname="2024 Design Symposium Vertical.svg"
   inkscape:export-filename="2024 Design Symposium Vertical.png"
   inkscape:export-xdpi="96"
   inkscape:export-ydpi="96"
   xmlns:inkscape="http://www.inkscape.org/namespaces/inkscape"
   xmlns:sodipodi="http://sodipodi.sourceforge.net/DTD/sodipodi-0.dtd"
   xmlns="http://www.w3.org/2000/svg"
   xmlns:svg="http://www.w3.org/2000/svg">
  <sodipodi:namedview
     id="namedview1"
     pagecolor="#ffffff"
     bordercolor="#b4b4b4"
     borderopacity="1"
     inkscape:showpageshadow="0"
     inkscape:pageopacity="0"
     inkscape:pagecheckerboard="0"
     inkscape:deskcolor="#484848"
     inkscape:document-units="mm"
     inkscape:zoom="0.35355339"
     inkscape:cx="765.08954"
     inkscape:cy="907.92511"
     inkscape:window-width="1920"
     inkscape:window-height="1051"
     inkscape:window-x="-9"
     inkscape:window-y="-9"
     inkscape:window-maximized="1"
     inkscape:current-layer="layer1" />
  <defs
     id="defs1">
    <marker
       style="overflow:visible"
       id="DartArrow"
       refX="0"
       refY="0"
       orient="auto-start-reverse"
       inkscape:stockid="Dart arrow"
       markerWidth="1.001"
       markerHeight="1.5015"
       viewBox="0 0 1 1"
       inkscape:isstock="true"
       inkscape:collect="always"
       preserveAspectRatio="xMidYMid">
      <path
         style="fill:context-stroke;fill-rule:evenodd;stroke:none"
         d="M 0,0 5,-5 -12.5,0 5,5 Z"
         transform="scale(-0.5)"
         id="path2" />
    </marker>
    <rect
       x="1286.9343"
       y="1080.4592"
       width="1046.518"
       height="347.89654"
       id="rect5" />
    <rect
       x="1159.6551"
       y="1035.2043"
       width="660.02058"
       height="118.79394"
       id="rect4" />
  </defs>
  <g
     inkscape:label="Layer 1"
     inkscape:groupmode="layer"
     id="layer1">
    <rect
       style="fill:#ffffff;fill-rule:evenodd;stroke-width:6.00001;stroke-linecap:round"
       id="rect3"
       width="285.75"
       height="508"
       x="0"
       y="0"
       rx="0.00014076055"
       ry="0.00014076055" />
    <g
       id="g5"
       transform="matrix(0.83765261,0,0,0.83765261,23.125846,-26.935555)"
       style="stroke-width:1.19381">
      <g
         id="g4"
         transform="matrix(10.824801,0,0,10.824801,-1528.0223,-1405.9939)"
         style="display:inline;stroke-width:0.110285"
         inkscape:export-filename="..\..\Downloads\Engineering Collaborative Council.svg"
         inkscape:export-xdpi="96"
         inkscape:export-ydpi="96">
        <path
           d="m 144.19792,141.81667 v 8.46666 h 7.63777 c -0.89295,-0.56509 -1.58513,-1.39722 -1.97817,-2.37815 h -3.28042 v -0.79891 h 3.03857 c -0.0795,-0.34748 -0.12171,-0.70243 -0.12609,-1.05885 0.004,-0.35447 0.046,-0.70749 0.12454,-1.05317 h -3.03702 v -0.79633 h 3.27629 c 0.39139,-0.98149 1.08212,-1.8147 1.97404,-2.38125 z"
           style="fill:#034c8b;fill-rule:evenodd;stroke-width:0.376513;stroke-linecap:round"
           id="path3" />
        <path
           d="m 160.85478,141.81667 c -0.93475,0.007 -1.84119,0.3224 -2.57762,0.89813 -0.20999,0.16211 -0.40431,0.34362 -0.58033,0.54209 -0.0616,0.0702 -0.12091,0.14241 -0.17776,0.21652 -0.11394,0.14731 -0.21804,0.30201 -0.31161,0.46302 -0.0363,0.0637 -0.0709,0.12831 -0.10387,0.19379 -0.0985,0.19227 -0.1821,0.39183 -0.25012,0.59686 h -0.46457 -0.35295 -0.55603 -0.3421 -0.35605 -0.52969 -0.29972 l -0.76429,1.32344 0.76429,1.32291 h 0.29972 0.52969 0.35605 0.3421 0.55758 0.3514 0.46457 c 0.0674,0.2032 0.15018,0.40102 0.24754,0.5917 0.0337,0.0673 0.0692,0.13359 0.10645,0.19895 0.0926,0.15915 0.19548,0.3121 0.30799,0.45786 0.0542,0.0705 0.11051,0.13925 0.16898,0.20618 0.1768,0.20134 0.37234,0.38546 0.58395,0.54984 0.73788,0.58018 1.64777,0.89868 2.5864,0.90537 1.31001,-0.007 2.54293,-0.62084 3.33882,-1.66139 0.11188,-0.14497 0.21425,-0.29705 0.30644,-0.45527 h -3.55999 -1.02526 l -0.002,-0.003 -0.11473,-0.19895 -0.41754,-0.72347 -0.63924,-1.10794 -0.0486,-0.0837 0.0537,-0.093 0.64751,-1.12138 0.40721,-0.70538 0.11162,-0.19379 0.002,-0.003 h 1.02526 3.57859 c -0.0927,-0.16004 -0.19573,-0.31387 -0.30851,-0.46044 -0.80036,-1.04337 -2.04036,-1.65564 -3.35535,-1.65674 z"
           style="fill:#034c8b;fill-rule:evenodd;stroke-width:0.376511;stroke-linecap:round"
           id="path4" />
      </g>
      <g
         id="g6"
         transform="matrix(10.824801,0,0,10.824801,-1528.0223,-1405.9939)"
         style="display:inline;stroke-width:0.110285">
        <path
           d="m 154.51667,141.81408 c -0.0884,0.006 -0.17669,0.0145 -0.26459,0.0258 -1.51192,0.0987 -2.85584,0.99805 -3.52381,2.358 -0.1248,0.25488 -0.22366,0.52167 -0.29508,0.79633 -0.094,0.34335 -0.14438,0.69721 -0.14986,1.05317 0.006,0.35795 0.0567,0.71374 0.15193,1.05885 0.0721,0.27564 0.17181,0.54331 0.29766,0.79891 0.66951,1.35517 2.01085,2.25058 3.51916,2.34921 0.0879,0.0116 0.17614,0.0204 0.26459,0.0264 0.94081,-0.007 1.85249,-0.32719 2.59105,-0.91002 -0.20671,-0.23201 -0.39147,-0.48268 -0.5519,-0.74879 -0.0837,-0.14866 -0.15975,-0.30147 -0.22789,-0.45786 h -1.19011 v -0.004 h -0.88574 -0.75447 l -0.11266,-0.19534 -1.09864,-1.90324 -0.007,-0.0119 0.007,-0.0119 1.10174,-1.90789 0.10956,-0.19017 h 0.75447 0.88574 v -0.004 h 1.18752 c 0.0687,-0.15818 0.14542,-0.31273 0.22996,-0.46302 0.16385,-0.27113 0.35297,-0.52617 0.56483,-0.76171 -0.74352,-0.58099 -1.65987,-0.89693 -2.60346,-0.89762 z"
           style="fill:#cfa715;fill-rule:evenodd;stroke-width:0.376511;stroke-linecap:round"
           id="path5" />
        <path
           d="m 160.37264,144.72708 -0.76378,1.32344 0.76378,1.32291 h 0.56741 0.88056 0.0801 l 0.76378,-1.32291 -0.76378,-1.32344 h -0.0801 -0.88056 z m 0.45837,0.79375 h 0.10904 0.50229 l 0.30593,0.52917 -0.30593,0.52968 h -0.50229 -0.10904 L 160.52509,146.05 Z"
           style="fill:#cfa715;fill-rule:evenodd;stroke-width:5.57964;stroke-linecap:round"
           id="path6" />
      </g>
      <path
         style="-inkscape-font-specification:'Tw Cen MT';display:inline;fill:#034c8b;fill-rule:evenodd;stroke-width:4.07564;stroke-linecap:round"
         d="m 32.891263,224.22519 h 4.963886 v 1.24114 h -3.754554 v 2.26827 h 3.754554 v 1.22687 h -3.754554 v 3.12423 h 3.754554 v 1.22687 h -4.963886 z m 6.960691,9.08738 v -5.88468 h 1.19527 v 0.97721 q 0.52732,-0.59203 0.95621,-0.86308 0.42889,-0.27819 0.95622,-0.27819 0.78747,0 1.34292,0.52784 0.56248,0.52784 0.56248,1.26966 v 4.25124 h -1.2234 v -3.88746 q 0,-0.4779 -0.30936,-0.79175 -0.30233,-0.31385 -0.77341,-0.31385 -0.6117,0 -1.05465,0.52783 -0.44295,0.52071 -0.44295,1.26254 v 3.20269 z m 12.26206,-5.88468 h 1.19527 v 5.64929 q 0,1.24827 -0.85076,2.11849 -0.84372,0.87735 -2.04602,0.87735 -0.91402,0 -1.6804,-0.50644 -0.76638,-0.4993 -1.12496,-1.52645 h 1.26558 q 0.56951,0.95582 1.58197,0.95582 0.68904,0 1.17418,-0.50644 0.48514,-0.49931 0.48514,-1.20547 v -1.11274 q -0.88591,1.30533 -2.23586,1.30533 -1.1109,0 -1.94056,-0.92728 -0.82262,-0.93442 -0.82262,-2.20408 0,-1.26967 0.80153,-2.17556 0.80857,-0.90588 1.91946,-0.90588 1.43433,0 2.27805,1.40519 z m 0.16874,2.93164 q 0,-0.82742 -0.56951,-1.38379 -0.56248,-0.55637 -1.39917,-0.55637 -0.76638,0 -1.34995,0.57777 -0.58357,0.57777 -0.58357,1.33386 0,0.82029 0.57654,1.41232 0.57654,0.59204 1.37104,0.59204 0.80857,0 1.37808,-0.57777 0.57654,-0.57777 0.57654,-1.39806 z m 3.62096,-4.86467 q 0,-0.38518 0.28124,-0.66337 0.28124,-0.28531 0.66795,-0.28531 0.37967,0 0.65388,0.28531 0.28124,0.27819 0.28124,0.66337 0,0.39231 -0.28124,0.6705 -0.27421,0.27818 -0.65388,0.27818 -0.38671,0 -0.66795,-0.27818 -0.28124,-0.27819 -0.28124,-0.6705 z m 0.34452,1.93303 h 1.20934 v 5.88468 h -1.20934 z m 3.71237,5.88468 v -5.88468 h 1.19527 v 0.97721 q 0.52732,-0.59203 0.95621,-0.86308 0.4289,-0.27819 0.95622,-0.27819 0.78747,0 1.34292,0.52784 0.56248,0.52784 0.56248,1.26966 v 4.25124 h -1.22339 v -3.88746 q 0,-0.4779 -0.30937,-0.79175 -0.30233,-0.31385 -0.77341,-0.31385 -0.61169,0 -1.05465,0.52783 -0.44295,0.52071 -0.44295,1.26254 v 3.20269 z m 13.225301,-2.70339 h -4.94982 q 0.16172,0.90589 0.73123,1.32673 0.57654,0.41371 1.25152,0.41371 1.04058,0 1.74368,-0.87735 l 0.89294,0.68476 q -1.00543,1.3196 -2.69287,1.3196 -1.29371,0 -2.16555,-0.89875 -0.87184,-0.89875 -0.87184,-2.23261 0,-1.24827 0.87887,-2.16129 0.88591,-0.92015 2.15852,-0.92015 1.25151,0 2.14445,0.93442 0.89294,0.92728 0.87887,2.41093 z m -4.82326,-0.99148 h 3.54362 q -0.5906,-1.2126 -1.74368,-1.2126 -1.25855,0 -1.79994,1.2126 z m 12.92297,0.99148 h -4.94982 q 0.16172,0.90589 0.73123,1.32673 0.57654,0.41371 1.25151,0.41371 1.04059,0 1.74369,-0.87735 l 0.89294,0.68476 q -1.00543,1.3196 -2.69287,1.3196 -1.29371,0 -2.16555,-0.89875 -0.87184,-0.89875 -0.87184,-2.23261 0,-1.24827 0.87887,-2.16129 0.88591,-0.92015 2.15852,-0.92015 1.25151,0 2.14445,0.93442 0.89294,0.92728 0.87887,2.41093 z m -4.82326,-0.99148 h 3.54362 q -0.5906,-1.2126 -1.74368,-1.2126 -1.25855,0 -1.79994,1.2126 z m 8.48641,-2.18981 v 1.2126 0 q 0.4078,-0.72756 0.79451,-1.04854 0.39373,-0.32812 1.01949,-0.32812 0.17578,0 0.50624,0.0856 l -0.37265,1.24113 q -0.35155,-0.0713 -0.46404,-0.0713 -0.61873,0 -1.04059,0.44224 -0.41483,0.43511 -0.41483,1.09134 v 3.25976 h -1.22339 v -5.88468 z m 4.11314,-1.93303 q 0,-0.38518 0.28124,-0.66337 0.28124,-0.28531 0.66794,-0.28531 0.37968,0 0.65389,0.28531 0.28124,0.27819 0.28124,0.66337 0,0.39231 -0.28124,0.6705 -0.27421,0.27818 -0.65389,0.27818 -0.3867,0 -0.66794,-0.27818 -0.28124,-0.27819 -0.28124,-0.6705 z m 0.34452,1.93303 h 1.20933 v 5.88468 h -1.20933 z m 3.71237,5.88468 v -5.88468 h 1.19526 v 0.97721 q 0.52733,-0.59203 0.95622,-0.86308 0.42889,-0.27819 0.95621,-0.27819 0.78748,0 1.34292,0.52784 0.56248,0.52784 0.56248,1.26966 v 4.25124 h -1.22339 v -3.88746 q 0,-0.4779 -0.30936,-0.79175 -0.30233,-0.31385 -0.77341,-0.31385 -0.6117,0 -1.05465,0.52783 -0.44295,0.52071 -0.44295,1.26254 v 3.20269 z m 12.262065,-5.88468 h 1.19527 v 5.64929 q 0,1.24827 -0.85075,2.11849 -0.84372,0.87735 -2.04602,0.87735 -0.91403,0 -1.68041,-0.50644 -0.76638,-0.4993 -1.12496,-1.52645 h 1.26558 q 0.56952,0.95582 1.58198,0.95582 0.68904,0 1.17417,-0.50644 0.48514,-0.49931 0.48514,-1.20547 v -1.11274 q -0.8859,1.30533 -2.23585,1.30533 -1.1109,0 -1.94056,-0.92728 -0.82263,-0.93442 -0.82263,-2.20408 0,-1.26967 0.80154,-2.17556 0.80856,-0.90588 1.91946,-0.90588 1.43432,0 2.27804,1.40519 z m 0.16875,2.93164 q 0,-0.82742 -0.56951,-1.38379 -0.56248,-0.55637 -1.39917,-0.55637 -0.76638,0 -1.34995,0.57777 -0.58358,0.57777 -0.58358,1.33386 0,0.82029 0.57655,1.41232 0.57654,0.59204 1.37104,0.59204 0.80856,0 1.37808,-0.57777 0.57654,-0.57777 0.57654,-1.39806 z m 16.07989,-5.82762 v 1.40519 q -1.44839,-0.72042 -2.66475,-0.72042 -1.56088,0 -2.62959,1.02714 -1.06871,1.02001 -1.06871,2.5108 0,1.51931 1.0898,2.53933 1.09684,1.01288 2.74209,1.01288 1.19527,0 2.53116,-0.76323 v 1.41946 q -1.21636,0.65623 -2.63662,0.65623 -2.08118,0 -3.55769,-1.42659 -1.47651,-1.43373 -1.47651,-3.45235 0,-1.98296 1.44839,-3.39528 1.45541,-1.41233 3.50143,-1.41233 1.3148,0 2.721,0.59917 z m 1.91243,5.81336 q 0,-1.20547 0.93512,-2.13989 0.94216,-0.94155 2.15852,-0.94155 1.25152,0 2.18664,0.92728 0.93512,0.92015 0.93512,2.15416 0,1.24113 -0.92106,2.18981 -0.91403,0.94155 -2.11633,0.94155 -1.28667,0 -2.23586,-0.93442 -0.94215,-0.93441 -0.94215,-2.19694 z m 5.03419,0 q 0,-0.74897 -0.56247,-1.2982 -0.56248,-0.55637 -1.3359,-0.55637 -0.7945,0 -1.37104,0.5635 -0.56951,0.55637 -0.56951,1.33386 0,0.74183 0.57654,1.2982 0.58357,0.55637 1.36401,0.55637 0.75935,0 1.32886,-0.57064 0.56951,-0.57063 0.56951,-1.32672 z m 3.56472,-6.29127 h 1.22339 v 9.25857 h -1.22339 z m 4.05689,0 h 1.22339 v 9.25857 h -1.22339 z m 8.76765,3.37389 h 1.22339 v 5.88468 h -1.22339 v -1.1698 q -0.89294,1.33386 -2.21476,1.33386 -1.14606,0 -1.96165,-0.91302 -0.80857,-0.91302 -0.80857,-2.21834 0,-1.23401 0.8156,-2.15416 0.82262,-0.92728 1.92649,-0.92728 0.68201,0 1.29371,0.37805 0.61169,0.37804 0.94918,0.98434 z m 0.16171,2.96017 q 0,-0.80602 -0.56951,-1.37666 -0.56951,-0.57777 -1.36401,-0.57777 -0.77341,0 -1.34995,0.57064 -0.57654,0.57064 -0.57654,1.341 0,0.83455 0.56248,1.41945 0.56248,0.5849 1.36401,0.5849 0.7945,0 1.36401,-0.57777 0.56951,-0.5849 0.56951,-1.38379 z m 3.98658,-6.33406 h 1.20933 v 4.53656 q 0.78044,-1.32673 2.23586,-1.32673 1.12496,0 1.94758,0.91302 0.82966,0.91302 0.82966,2.16842 0,1.25539 -0.8156,2.19694 -0.80856,0.93442 -1.89133,0.93442 -0.69607,0 -1.32183,-0.37805 -0.62576,-0.37804 -0.98434,-1.02714 v 1.24113 h -1.20933 z m 4.92873,6.29127 q 0,-0.80603 -0.56951,-1.37666 -0.56951,-0.57777 -1.37808,-0.57777 -0.78044,0 -1.35698,0.5849 -0.56951,0.57777 -0.56951,1.36953 0,0.82742 0.56951,1.39805 0.57654,0.56351 1.41323,0.56351 0.77341,0 1.32886,-0.57777 0.56248,-0.57777 0.56248,-1.38379 z m 3.403,0 q 0,-1.20547 0.93512,-2.13989 0.94216,-0.94155 2.15852,-0.94155 1.25152,0 2.18664,0.92728 0.93512,0.92015 0.93512,2.15416 0,1.24113 -0.92106,2.18981 -0.91403,0.94155 -2.11633,0.94155 -1.28667,0 -2.23586,-0.93442 -0.94215,-0.93441 -0.94215,-2.19694 z m 5.03419,0 q 0,-0.74897 -0.56248,-1.2982 -0.56248,-0.55637 -1.33588,-0.55637 -0.79451,0 -1.37105,0.5635 -0.56951,0.55637 -0.56951,1.33386 0,0.74183 0.57654,1.2982 0.58358,0.55637 1.36402,0.55637 0.75934,0 1.32886,-0.57064 0.5695,-0.57063 0.5695,-1.32672 z m 4.74593,-2.91738 v 1.2126 0 q 0.4078,-0.72756 0.7945,-1.04854 0.39374,-0.32812 1.0195,-0.32812 0.17577,0 0.50623,0.0856 l -0.37265,1.24113 q -0.35155,-0.0713 -0.46404,-0.0713 -0.61873,0 -1.04059,0.44224 -0.41483,0.43511 -0.41483,1.09134 v 3.25976 h -1.22339 v -5.88468 z m 9.08405,0 h 1.22339 v 5.88468 h -1.22339 v -1.1698 q -0.89294,1.33386 -2.21477,1.33386 -1.14605,0 -1.96165,-0.91302 -0.80856,-0.91302 -0.80856,-2.21834 0,-1.23401 0.8156,-2.15416 0.82262,-0.92728 1.92649,-0.92728 0.68201,0 1.2937,0.37805 0.6117,0.37804 0.94919,0.98434 z m 0.16171,2.96017 q 0,-0.80602 -0.56951,-1.37666 -0.56951,-0.57777 -1.36401,-0.57777 -0.77341,0 -1.34995,0.57064 -0.57655,0.57064 -0.57655,1.341 0,0.83455 0.56248,1.41945 0.56248,0.5849 1.36402,0.5849 0.7945,0 1.36401,-0.57777 0.56951,-0.5849 0.56951,-1.38379 z m 4.19047,-4.67208 h 1.2234 v 1.71191 h 1.20933 v 1.13414 h -1.20933 v 4.75054 h -1.2234 v -4.75054 h -0.96324 v -1.14841 h 0.96324 z m 4.18345,-0.22112 q 0,-0.38518 0.28124,-0.66337 0.28124,-0.28531 0.66794,-0.28531 0.37968,0 0.65389,0.28531 0.28124,0.27819 0.28124,0.66337 0,0.39231 -0.28124,0.6705 -0.27421,0.27818 -0.65389,0.27818 -0.3867,0 -0.66794,-0.27818 -0.28124,-0.27819 -0.28124,-0.6705 z m 0.34452,1.93303 h 1.20933 v 5.88468 h -1.20933 z m 3.33972,0 h 1.27964 l 1.65932,3.40242 1.6101,-3.40242 h 1.2937 l -2.9249,6.1058 z m 13.30968,3.18129 h -4.94982 q 0.16171,0.90589 0.73122,1.32673 0.57654,0.41371 1.25152,0.41371 1.04058,0 1.74368,-0.87735 l 0.89294,0.68476 q -1.00543,1.3196 -2.69287,1.3196 -1.2937,0 -2.16555,-0.89875 -0.87184,-0.89875 -0.87184,-2.23261 0,-1.24827 0.87887,-2.16129 0.88591,-0.92015 2.15852,-0.92015 1.25152,0 2.14445,0.93442 0.89294,0.92728 0.87888,2.41093 z m -4.82327,-0.99148 h 3.54363 q -0.59061,-1.2126 -1.74369,-1.2126 -1.25855,0 -1.79994,1.2126 z m 19.36337,-5.08579 v 1.40519 q -1.44838,-0.72042 -2.66474,-0.72042 -1.56089,0 -2.6296,1.02714 -1.06871,1.02001 -1.06871,2.5108 0,1.51931 1.0898,2.53933 1.09684,1.01288 2.74209,1.01288 1.19527,0 2.53116,-0.76323 v 1.41946 q -1.21636,0.65623 -2.63662,0.65623 -2.08118,0 -3.55769,-1.42659 -1.47651,-1.43373 -1.47651,-3.45235 0,-1.98296 1.44839,-3.39528 1.45541,-1.41233 3.50144,-1.41233 1.31479,0 2.72099,0.59917 z m 1.91243,5.81336 q 0,-1.20547 0.93513,-2.13989 0.94215,-0.94155 2.15851,-0.94155 1.25152,0 2.18664,0.92728 0.93513,0.92015 0.93513,2.15416 0,1.24113 -0.92106,2.18981 -0.91404,0.94155 -2.11634,0.94155 -1.28667,0 -2.23585,-0.93442 -0.94216,-0.93441 -0.94216,-2.19694 z m 5.0342,0 q 0,-0.74897 -0.56248,-1.2982 -0.56248,-0.55637 -1.33589,-0.55637 -0.7945,0 -1.37105,0.5635 -0.56951,0.55637 -0.56951,1.33386 0,0.74183 0.57655,1.2982 0.58357,0.55637 1.36401,0.55637 0.75935,0 1.32886,-0.57064 0.56951,-0.57063 0.56951,-1.32672 z m 3.17801,-2.91738 h 1.22339 v 3.31682 q 0,1.53358 1.32886,1.53358 0.5906,0 0.93512,-0.40658 0.34452,-0.4137 0.34452,-1.127 v -3.31682 h 1.20934 v 3.51654 q 0,1.10561 -0.71014,1.8189 -0.71013,0.7133 -1.814,0.7133 -1.12495,0 -1.82102,-0.7133 -0.69607,-0.71329 -0.69607,-1.8617 z m 7.19271,5.88468 v -5.88468 h 1.19527 v 0.97721 q 0.52732,-0.59203 0.95622,-0.86308 0.42888,-0.27819 0.95621,-0.27819 0.78747,0 1.34292,0.52784 0.56248,0.52784 0.56248,1.26966 v 4.25124 h -1.22339 v -3.88746 q 0,-0.4779 -0.30937,-0.79175 -0.30233,-0.31385 -0.77341,-0.31385 -0.61169,0 -1.05465,0.52783 -0.44295,0.52071 -0.44295,1.26254 v 3.20269 z m 11.78395,-1.7975 v 1.41945 q -0.93512,0.54211 -1.814,0.54211 -1.2023,0 -2.10929,-0.91302 -0.89997,-0.92015 -0.89997,-2.12562 0,-1.36952 0.89997,-2.26828 0.89996,-0.90588 2.25694,-0.90588 0.80857,0 1.66635,0.42798 v 1.38379 q -0.92106,-0.59917 -1.74369,-0.59917 -0.75934,0 -1.32886,0.5421 -0.5695,0.54211 -0.5695,1.26967 0,0.82029 0.53435,1.38379 0.53436,0.55637 1.30777,0.55637 0.78747,0 1.79993,-0.71329 z m 1.86322,-6.02021 q 0,-0.38518 0.28124,-0.66337 0.28124,-0.28531 0.66794,-0.28531 0.37968,0 0.65388,0.28531 0.28124,0.27819 0.28124,0.66337 0,0.39231 -0.28124,0.6705 -0.2742,0.27818 -0.65388,0.27818 -0.3867,0 -0.66794,-0.27818 -0.28124,-0.27819 -0.28124,-0.6705 z m 0.34452,1.93303 h 1.20933 v 5.88468 h -1.20933 z m 4.11313,-3.37389 h 1.22339 v 9.25857 h -1.22339 z"
         id="path16"
         aria-label="Engineering Collaborative Council" />
    </g>
    <text
       xml:space="preserve"
       style="font-style:normal;font-variant:normal;font-weight:600;font-stretch:normal;font-size:25.2064px;line-height:0;font-family:'Red Hat Display';-inkscape-font-specification:'Red Hat Display Semi-Bold';text-align:center;letter-spacing:0px;text-anchor:middle;fill:#034c8b;fill-opacity:1;fill-rule:evenodd;stroke-width:0.529166;stroke-linecap:round"
       x="142.76404"
       y="305.0452"
       id="text1-0"><tspan
         style="font-style:normal;font-variant:normal;font-weight:600;font-stretch:normal;font-size:25.2064px;line-height:0.9;font-family:Urbanist;-inkscape-font-specification:'Urbanist Semi-Bold';text-align:center;text-anchor:middle;fill:#034c8b;fill-opacity:1;stroke-width:0.529166"
         x="142.76404"
         y="305.0452"
         sodipodi:role="line"
         id="tspan5" /><tspan
         style="font-style:normal;font-variant:normal;font-weight:600;font-stretch:normal;font-size:25.2064px;line-height:1.04;font-family:Urbanist;-inkscape-font-specification:'Urbanist Semi-Bold';text-align:center;text-anchor:middle;fill:#034c8b;fill-opacity:1;stroke-width:0.529166"
         x="142.76404"
         y="329.49539"
         sodipodi:role="line"
         id="tspan1">Student Team</tspan><tspan
         style="font-style:normal;font-variant:normal;font-weight:600;font-stretch:normal;font-size:25.2064px;line-height:1.04;font-family:Urbanist;-inkscape-font-specification:'Urbanist Semi-Bold';text-align:center;text-anchor:middle;fill:#034c8b;fill-opacity:1;stroke-width:0.529166"
         x="142.76404"
         y="355.71005"
         sodipodi:role="line"
         id="tspan2">Design Symposium</tspan></text>
    <text
       xml:space="preserve"
       style="font-style:normal;font-variant:normal;font-weight:600;font-stretch:normal;font-size:25.2064px;line-height:0;font-family:'Red Hat Display';-inkscape-font-specification:'Red Hat Display Semi-Bold';text-align:center;letter-spacing:0px;text-anchor:middle;fill:#034c8b;fill-opacity:1;fill-rule:evenodd;stroke-width:0.529166;stroke-linecap:round"
       x="125.56659"
       y="421.24353"
       id="text1-0-4"><tspan
         style="font-style:normal;font-variant:normal;font-weight:600;font-stretch:normal;font-size:25.2064px;line-height:1.04;font-family:Urbanist;-inkscape-font-specification:'Urbanist Semi-Bold';text-align:center;text-anchor:middle;fill:#034c8b;fill-opacity:1;stroke-width:0.529166"
         x="125.56659"
         y="421.24353"
         sodipodi:role="line"
         id="tspan2-0" /></text>
    <rect
       style="fill:#c4c4c4;fill-opacity:1;fill-rule:evenodd;stroke-width:0.529167;stroke-linecap:round"
       id="rect1"
       width="230.71747"
       height="5.5760622"
       x="27.516266"
       y="191.04507"
       rx="2.4749999"
       ry="2.4749999" />
    <rect
       style="fill:#c4c4c4;fill-opacity:1;fill-rule:evenodd;stroke-width:0.529167;stroke-linecap:round"
       id="rect2"
       width="211.4929"
       height="5.5760622"
       x="37.128551"
       y="201.77745"
       rx="2.4749999"
       ry="2.4749999" />
    <path
       id="text1"
       style="font-size:48.7761px;line-height:0.9;font-family:Teko;-inkscape-font-specification:Teko;text-align:center;letter-spacing:0px;text-anchor:middle;display:none;fill:#034c8b;fill-rule:evenodd;stroke-width:0.529166;stroke-linecap:round"
       d="m 269.16135,216.57489 v 3.95118 h 3.56102 v -3.95118 z m 148.91339,0 v 3.95118 h 3.56102 v -3.95118 z m -254.02584,0.0491 v 10.5792 c 0.12277,0.36936 0.19534,0.80086 0.19534,1.32188 v 3.31659 h -0.19534 v 11.65769 l 0.19534,0.0486 v 2.73162 c 0,0.52109 -0.0725,0.95664 -0.19534,1.33325 v 1.64228 h 3.36569 v -32.63108 z m 0,30.9888 v -0.94309 -0.34107 -1.70739 c 0,0.65036 -0.13002,1.10567 -0.39016,1.36581 -0.26014,0.26014 -0.68282,0.39016 -1.26814,0.39016 h -1.95078 c -0.61783,0 -1.02446,-0.0974 -1.21956,-0.29249 -0.19511,-0.19511 -0.29249,-0.60173 -0.29249,-1.21956 v -8.38967 l -3.36569,1.80506 v 7.12101 c 0,1.3007 0.30873,2.2761 0.92656,2.92643 0.65035,0.61783 1.62574,0.92708 2.92644,0.92708 h 1.9513 c 0.84545,0 1.52818,-0.21134 2.04845,-0.63407 0.29226,-0.24068 0.49633,-0.58575 0.63407,-1.00821 z m -0.0555,-20.09973 c -0.13774,-0.41442 -0.28624,-1.05685 -0.57853,-1.28036 -0.52027,-0.45524 -1.203,-0.68316 -2.04845,-0.68316 h -1.9513 c -1.3007,0 -2.27609,0.32531 -2.92644,0.97565 -0.61783,0.61783 -0.92656,1.57717 -0.92656,2.87786 v 8.8775 l 3.36569,-1.80506 v -6.53604 c 0,-0.65034 0.0974,-1.05646 0.29249,-1.21904 0.1951,-0.19511 0.60173,-0.29301 1.21956,-0.29301 h 1.95078 c 0.58532,0 1.008,0.13002 1.26814,0.39016 0.26014,0.26014 0.39016,0.71546 0.39016,1.36581 z M 48.79082,218.91635 c -1.300692,0 -2.27609,0.32479 -2.926436,0.97514 -0.617829,0.61783 -0.926558,1.57717 -0.926558,2.87786 v 5.90196 h 3.316593 v -5.36504 c 0,-0.65035 0.09738,-1.05698 0.292489,-1.21957 0.195102,-0.1951 0.601734,-0.29249 1.219563,-0.29249 h 1.755966 c 0.650346,0 1.056977,0.0974 1.219563,0.29249 0.195105,0.16259 0.292489,0.56922 0.292489,1.21957 v 1.95078 c 0,1.17063 -0.08133,2.2113 -0.243913,3.12177 -0.130069,0.87798 -0.422741,1.83731 -0.877982,2.87787 l -6.926193,15.1691 v 2.82928 h 11.657687 v -2.87786 h -8.194332 l 6.682279,-14.58412 c 0.487761,-1.13811 0.813066,-2.17877 0.975651,-3.12178 0.195105,-0.943 0.292489,-2.01578 0.292489,-3.21892 v -2.68304 c 0,-1.30069 -0.325305,-2.26003 -0.975651,-2.87786 -0.617829,-0.65035 -1.577167,-0.97514 -2.877861,-0.97514 z m 15.364954,0 c -1.300694,0 -2.276607,0.32479 -2.926953,0.97514 -0.61783,0.61783 -0.926559,1.57717 -0.926559,2.87786 v 22.63221 c 0,1.3007 0.308729,2.2761 0.926559,2.92643 0.650346,0.61783 1.626259,0.92708 2.926953,0.92708 h 5.023466 c 1.300694,0 2.260031,-0.30925 2.87786,-0.92708 0.650348,-0.65033 0.975651,-1.62573 0.975651,-2.92643 v -22.63221 c 0,-1.30069 -0.325303,-2.26003 -0.975651,-2.87786 -0.617829,-0.65035 -1.577166,-0.97514 -2.87786,-0.97514 z m 16.388664,0 c -1.300694,0 -2.276089,0.32479 -2.926437,0.97514 -0.617828,0.61783 -0.927075,1.57717 -0.927075,2.87786 v 5.90196 h 3.316594 v -5.36504 c 0,-0.65035 0.0979,-1.05698 0.293005,-1.21957 0.195104,-0.1951 0.601734,-0.29249 1.219564,-0.29249 h 1.755448 c 0.650346,0 1.056977,0.0974 1.219564,0.29249 0.195104,0.16259 0.292489,0.56922 0.292489,1.21957 v 1.95078 c 0,1.17063 -0.08081,2.2113 -0.243396,3.12177 -0.13007,0.87798 -0.422741,1.83731 -0.877983,2.87787 l -6.926192,15.1691 v 2.82928 h 11.657169 v -2.87786 h -8.194332 l 6.68228,-14.58412 c 0.487759,-1.13811 0.813064,-2.17877 0.975651,-3.12178 0.195104,-0.943 0.292489,-2.01578 0.292489,-3.21892 v -2.68304 c 0,-1.30069 -0.325305,-2.26003 -0.975651,-2.87786 -0.617831,-0.65035 -1.576652,-0.97514 -2.877344,-0.97514 z m 17.315222,0 -7.998995,21.55889 v 2.58538 h 1.609721 0.731221 l 1.064018,-2.87786 7.862055,-21.26641 z m -4.594035,21.26641 -1.064018,2.87786 h 7.463111 v -2.87786 z m 6.399093,0 h 3.218922 v -5.75573 h -3.218922 z m 0,0 3.218922,2.87786 h 2.58537 v -2.87786 z m 3.218922,2.87786 -3.218922,-2.87786 v 9.07231 h 3.218922 z m 14.73037,-24.14427 c -1.30069,0 -2.27609,0.32479 -2.92644,0.97514 -0.61783,0.61783 -0.92656,1.57717 -0.92656,2.87786 v 8.43824 c 0,1.30069 0.30873,2.27661 0.92656,2.92696 0.65035,0.61783 1.62575,0.92655 2.92644,0.92655 h 3.31711 c 0.65035,0 1.05646,0.0974 1.21905,0.29249 0.1951,0.16259 0.293,0.56922 0.293,1.21957 v 8.292 c 0,0.61783 -0.0979,1.02445 -0.293,1.21956 -0.16259,0.1951 -0.5687,0.29249 -1.21905,0.29249 h -2.19522 c -0.61782,0 -1.02394,-0.0974 -1.21904,-0.29249 -0.1951,-0.19511 -0.29301,-0.60173 -0.29301,-1.21956 v -4.146 h -3.36517 v 4.6824 c 0,1.3007 0.30874,2.2761 0.92656,2.92643 0.65035,0.61783 1.62574,0.92708 2.92644,0.92708 h 4.24367 c 1.30069,0 2.26002,-0.30925 2.87786,-0.92708 0.65034,-0.65033 0.97513,-1.62573 0.97513,-2.92643 v -9.3648 c 0,-1.3007 -0.32479,-2.26003 -0.97513,-2.87787 -0.61784,-0.65033 -1.57717,-0.97565 -2.87786,-0.97565 h -3.31711 c -0.61783,0 -1.02394,-0.0974 -1.21905,-0.29248 -0.19511,-0.1951 -0.29301,-0.60174 -0.29301,-1.21957 v -7.36492 c 0,-0.65035 0.0979,-1.05698 0.29301,-1.21957 0.19511,-0.1951 0.60122,-0.29249 1.21905,-0.29249 h 2.24379 c 0.65035,0 1.05697,0.0974 1.21956,0.29249 0.1951,0.16259 0.29249,0.56922 0.29249,1.21957 v 4.146 h 3.36569 v -4.68292 c 0,-1.30069 -0.32531,-2.26003 -0.97566,-2.87786 -0.61781,-0.65035 -1.57716,-0.97514 -2.87786,-0.97514 z m 102.96632,0 v 30.33872 h 1.90221 v -2.87786 h 1.46348 v -24.583 h -1.46348 v -2.87786 z m 3.36569,2.87786 h 5.21932 c 0.65035,0 1.05646,0.0974 1.21905,0.29249 0.1951,0.16259 0.293,0.56922 0.293,1.21957 v 5.36504 h 3.36517 v -5.90196 c 0,-1.30069 -0.32479,-2.26003 -0.97513,-2.87786 -0.61784,-0.65035 -1.57717,-0.97514 -2.87786,-0.97514 h -6.24355 z m 0,24.583 v 2.87786 h 6.24355 c 1.30069,0 2.26002,-0.30925 2.87786,-0.92708 0.65034,-0.65033 0.97513,-1.62573 0.97513,-2.92643 v -15.51068 h -3.36517 v 14.97428 c 0,0.61783 -0.0979,1.02445 -0.293,1.21956 -0.16259,0.1951 -0.5687,0.29249 -1.21905,0.29249 z m 95.25982,-27.46086 c -1.3007,0 -2.27609,0.32479 -2.92644,0.97514 -0.61782,0.61783 -0.92707,1.57717 -0.92707,2.87786 v 8.43824 c 0,1.30069 0.30925,2.27661 0.92707,2.92696 0.65035,0.61783 1.62574,0.92655 2.92644,0.92655 h 3.31659 c 0.65036,0 1.05698,0.0974 1.21957,0.29249 0.1951,0.16259 0.29248,0.56922 0.29248,1.21957 v 8.292 c 0,0.61783 -0.0974,1.02394 -0.29248,1.21904 -0.16259,0.1951 -0.56921,0.29301 -1.21957,0.29301 h -2.1947 c -0.61783,0 -1.02446,-0.0979 -1.21956,-0.29301 -0.19511,-0.1951 -0.29249,-0.60121 -0.29249,-1.21904 v -4.146 H 315.45 v 4.6824 c 0,1.3007 0.30873,2.2761 0.92655,2.92643 0.65036,0.61783 1.62627,0.92708 2.92696,0.92708 h 4.24315 c 1.3007,0 2.26003,-0.30925 2.87786,-0.92708 0.65035,-0.65033 0.97565,-1.62573 0.97565,-2.92643 v -9.3648 c 0,-1.3007 -0.3253,-2.26003 -0.97565,-2.87787 -0.61783,-0.65033 -1.57716,-0.97565 -2.87786,-0.97565 h -3.31659 c -0.61784,0 -1.02446,-0.0974 -1.21957,-0.29248 -0.1951,-0.1951 -0.29249,-0.60174 -0.29249,-1.21957 v -7.36492 c 0,-0.65035 0.0974,-1.05698 0.29249,-1.21957 0.19511,-0.1951 0.60173,-0.29249 1.21957,-0.29249 h 2.24379 c 0.65034,0 1.05697,0.0974 1.21956,0.29249 0.19511,0.16259 0.29249,0.56922 0.29249,1.21957 v 4.14548 h 3.36569 v -4.6824 c 0,-1.30069 -0.3253,-2.26003 -0.97566,-2.87786 -0.61782,-0.65035 -1.57716,-0.97514 -2.87786,-0.97514 z m -189.05616,2.82877 v 3.85351 h 3.36568 v -3.85351 z m 3.36568,3.85351 v 2.87786 h 3.36517 v -2.87786 z m 0,0 -3.36568,2.87786 v 16.92507 c 0,1.3007 0.30873,2.2761 0.92656,2.92643 0.65034,0.61783 1.62625,0.92708 2.92695,0.92708 h 2.87734 v -3.12177 h -1.85311 c -0.61784,0 -1.02446,-0.0974 -1.21957,-0.29249 -0.1951,-0.19511 -0.29249,-0.60173 -0.29249,-1.21957 z m -3.36568,2.87786 3.36568,-2.87786 h -5.5118 v 2.87786 z m 74.18824,-6.73137 v 3.85351 h 3.36568 v -3.85351 z m 3.36568,3.85351 v 2.87786 h 3.36569 v -2.87786 z m 0,2.87786 h -3.36568 v 16.92507 c 0,1.3007 0.30924,2.2761 0.92707,2.92643 0.65035,0.61783 1.62574,0.92708 2.92644,0.92708 h 2.87786 v -3.12177 h -1.85364 c -0.61782,0 -1.02445,-0.0974 -1.21956,-0.29249 -0.19511,-0.19511 -0.29249,-0.60173 -0.29249,-1.21957 z m -3.36568,0 v -2.87786 h -2.14613 v 2.87786 z M 65.180001,221.79421 h 2.975012 c 0.650346,0 1.056977,0.0974 1.219564,0.29249 0.195104,0.16259 0.292488,0.56922 0.292488,1.21957 v 21.55889 c 0,0.61783 -0.09738,1.02445 -0.292488,1.21956 -0.162587,0.1951 -0.569218,0.29249 -1.219564,0.29249 h -2.975012 c -0.61783,0 -1.02446,-0.0974 -1.219564,-0.29249 -0.195104,-0.19511 -0.292489,-0.60173 -0.292489,-1.21956 v -21.55889 c 0,-0.65035 0.09738,-1.05698 0.292489,-1.21957 0.195104,-0.1951 0.601734,-0.29249 1.219564,-0.29249 z m 74.383569,3.80442 v 19.80293 c 0,1.3007 0.30874,2.2761 0.92656,2.92643 0.65036,0.61783 1.62575,0.92708 2.92644,0.92708 h 1.9513 c 0.84545,0 1.52819,-0.21134 2.04845,-0.63407 0.29226,-0.24068 0.49633,-0.58575 0.63407,-1.00821 v -0.894 -0.34158 -1.75597 c 0,0.65036 -0.13001,1.10567 -0.39015,1.36581 -0.26014,0.26014 -0.68283,0.39016 -1.26814,0.39016 h -1.9513 c -0.61784,0 -1.02395,-0.0974 -1.21905,-0.29249 -0.19511,-0.19511 -0.29301,-0.60173 -0.29301,-1.21956 v -19.26653 z m 8.48682,21.12016 v 2.53628 h 3.36569 v -23.65644 h -3.36569 v 17.36432 0 3.75584 c 0,0 0.12284,-0.37661 0,0 z m 27.60711,-21.12016 c -1.3007,0 -2.2761,0.32531 -2.92644,0.97565 -0.61783,0.61783 -0.92656,1.57665 -0.92656,2.87735 v 15.94993 c 0,1.3007 0.30873,2.2761 0.92656,2.92643 0.65034,0.61783 1.62574,0.92708 2.92644,0.92708 h 1.80505 v -2.87786 h -0.78031 c -0.61783,0 -1.02446,-0.0974 -1.21957,-0.29249 -0.19509,-0.19511 -0.29248,-0.60173 -0.29248,-1.21956 v -6.29213 h -1.90273 v -2.87786 h 1.90273 v -5.70662 c 0,-0.65035 0.0974,-1.05698 0.29248,-1.21957 0.19511,-0.1951 0.60174,-0.29249 1.21957,-0.29249 h 0.78031 v -2.87786 z m -0.48731,10.09654 v 2.87786 h 8.8284 v -0.48782 h -3.36569 v -2.39004 z m 5.46271,0 h 3.36569 v -6.24354 c 0,-1.3007 -0.32531,-2.25952 -0.97565,-2.87735 -0.61784,-0.65034 -1.57717,-0.97565 -2.87786,-0.97565 h -1.95079 v 2.87786 h 0.92656 c 0.65035,0 1.05698,0.0974 1.21956,0.29249 0.19511,0.16259 0.29249,0.56922 0.29249,1.21957 z m 7.26778,-10.09654 v 23.65644 h 3.36516 v -17.36431 h -0.19482 v -3.31711 c 0,-0.5528 0.0648,-1.01991 0.19482,-1.40199 v -1.57303 z m 3.36516,1.57303 v 0.96325 0.34158 1.75597 c 0,-0.65035 0.13054,-1.10567 0.39068,-1.36581 0.26014,-0.26013 0.68283,-0.39016 1.26814,-0.39016 h 1.95078 c 0.65036,0 1.05698,0.0974 1.21957,0.29249 0.1951,0.16259 0.29249,0.56922 0.29249,1.21957 v 19.26652 h 3.36568 v -19.80344 c 0,-1.3007 -0.3253,-2.25952 -0.97565,-2.87735 -0.61783,-0.65034 -1.57716,-0.97565 -2.87786,-0.97565 h -1.95078 c -0.84546,0 -1.54475,0.22741 -2.09755,0.68265 -0.26014,0.21136 -0.45543,0.5083 -0.5855,0.89038 z m 51.26406,-1.57303 c -1.30069,0 -2.27609,0.32531 -2.92644,0.97565 -0.61783,0.61783 -0.92707,1.57665 -0.92707,2.87735 v 15.94993 c 0,1.3007 0.30924,2.2761 0.92707,2.92643 0.65035,0.61783 1.62575,0.92708 2.92644,0.92708 h 1.80454 v -2.87786 h -0.78031 c -0.61784,0 -1.02447,-0.0974 -1.21957,-0.29249 -0.1951,-0.19511 -0.29249,-0.60173 -0.29249,-1.21956 v -6.29213 h -1.90221 v -2.87786 h 1.90221 v -5.70662 c 0,-0.65035 0.0974,-1.05698 0.29249,-1.21957 0.1951,-0.1951 0.60173,-0.29249 1.21957,-0.29249 h 0.78031 v -2.87786 z m -0.48783,10.09654 v 2.87786 h 8.82841 v -0.48782 h -3.36569 v -2.39004 z m 5.46272,0 h 3.36569 v -6.24354 c 0,-1.3007 -0.3253,-2.25952 -0.97566,-2.87735 -0.61782,-0.65034 -1.57716,-0.97565 -2.87786,-0.97565 h -1.95078 v 2.87786 h 0.92656 c 0.65034,0 1.05697,0.0974 1.21956,0.29249 0.1951,0.16259 0.29249,0.56922 0.29249,1.21957 z m 10.63346,-10.09654 c -1.30069,0 -2.27662,0.32531 -2.92695,0.97565 -0.61784,0.61783 -0.92656,1.57665 -0.92656,2.87735 v 5.60947 c 0,1.3007 0.30872,2.27609 0.92656,2.92644 0.65033,0.61783 1.62626,0.92708 2.92695,0.92708 h 2.39003 c 0.65035,0 1.05646,0.0974 1.21905,0.29248 0.19511,0.16259 0.29301,0.56922 0.29301,1.21957 v 4.48706 c 0,0.61784 -0.0979,1.02447 -0.29301,1.21957 -0.16259,0.1951 -0.5687,0.29249 -1.21905,0.29249 h -1.31723 c -0.61783,0 -1.02394,-0.0974 -1.21905,-0.29249 -0.1951,-0.1951 -0.293,-0.60173 -0.293,-1.21957 v -1.90221 h -3.31659 v 2.39004 c 0,1.3007 0.30872,2.2761 0.92655,2.92643 0.65035,0.61783 1.62627,0.92708 2.92696,0.92708 h 3.2675 c 1.3007,0 2.26003,-0.30925 2.87786,-0.92708 0.65034,-0.65033 0.97565,-1.62573 0.97565,-2.92643 v -5.46272 c 0,-1.3007 -0.32531,-2.26003 -0.97565,-2.87786 -0.61783,-0.65034 -1.57716,-0.97565 -2.87786,-0.97565 h -2.39004 c -0.61782,0 -1.02394,-0.0974 -1.21904,-0.29249 -0.19511,-0.1951 -0.29301,-0.60174 -0.29301,-1.21956 v -4.63383 c 0,-0.65034 0.0979,-1.05646 0.29301,-1.21904 0.1951,-0.19511 0.60122,-0.29301 1.21904,-0.29301 h 1.36581 c 0.65035,0 1.05699,0.0979 1.21956,0.29301 0.1951,0.16258 0.29249,0.5687 0.29249,1.21904 v 1.90221 h 3.31711 v -2.39003 c 0,-1.3007 -0.3253,-2.25952 -0.97565,-2.87735 -0.61783,-0.65034 -1.57717,-0.97565 -2.87786,-0.97565 z m 11.12077,0 v 23.65644 h 3.36568 v -23.65644 z m 11.36519,0 c -1.30068,0 -2.2766,0.32531 -2.92695,0.97565 -0.61783,0.61783 -0.92656,1.57665 -0.92656,2.87735 v 7.02386 h 3.36569 v -6.48694 c 0,-0.65035 0.0974,-1.05698 0.29249,-1.21957 0.1951,-0.1951 0.60174,-0.29249 1.21956,-0.29249 h 1.95079 c 0.58531,0 1.008,0.13003 1.26814,0.39016 0.26014,0.26014 0.39015,0.71546 0.39015,1.36581 v -2.04897 -0.14625 -0.78496 c -0.13774,-0.41443 -0.34178,-0.74749 -0.63407,-0.971 -0.52028,-0.45524 -1.203,-0.68265 -2.04845,-0.68265 z m 4.63331,1.65365 c 0.12277,0.36936 0.19534,0.80035 0.19534,1.32137 v 3.31711 h -0.19534 v 11.60859 l 0.19534,0.0486 v 2.73162 c 0,0.52109 -0.0725,0.95664 -0.19534,1.33325 v 1.15445 h 3.36569 v -23.16861 h -3.36569 z m 0,20.36051 v -2.99155 c 0,0.65036 -0.13001,1.10567 -0.39015,1.36581 -0.26014,0.26014 -0.68283,0.39016 -1.26814,0.39016 h -1.95079 c -0.61782,0 -1.02446,-0.0974 -1.21956,-0.29249 -0.19511,-0.19511 -0.29249,-0.60173 -0.29249,-1.21956 v -6.53604 h -3.36569 v 7.07244 c 0,1.3007 0.30873,2.2761 0.92656,2.92643 0.65035,0.61783 1.62627,0.92708 2.92695,0.92708 h 1.95079 c 0.84545,0 1.52817,-0.21134 2.04845,-0.63407 0.29225,-0.24068 0.49633,-0.58575 0.63407,-1.00821 z m 7.7556,-22.01416 v 23.65644 h 3.36569 v -17.36431 h -0.19534 v -3.31711 c 0,-0.5528 0.0653,-1.01991 0.19534,-1.40199 v -1.57303 z m 3.36569,1.57303 v 0.96325 0.34158 1.75597 c 0,-0.65035 0.13002,-1.10567 0.39016,-1.36581 0.26014,-0.26013 0.68282,-0.39016 1.26814,-0.39016 h 1.95078 c 0.65035,0 1.05698,0.0974 1.21956,0.29249 0.19511,0.16259 0.29249,0.56922 0.29249,1.21957 v 19.26652 h 3.36569 v -19.80344 c 0,-1.3007 -0.3253,-2.26004 -0.97565,-2.87786 -0.61783,-0.65035 -1.57716,-0.97514 -2.87786,-0.97514 h -1.95079 c -0.84545,0 -1.54475,0.22741 -2.09754,0.68265 -0.26014,0.21136 -0.45491,0.5083 -0.58498,0.89038 z m 33.45997,-1.57303 4.53616,23.65644 h 2.19521 l -0.58549,2.48719 c -0.13007,0.61783 -0.40616,1.02445 -0.82889,1.21956 -0.42273,0.1951 -0.95937,0.29249 -1.60972,0.29249 h -1.60972 v 2.87786 h 2.63395 c 1.30068,0 2.34136,-0.3248 3.12177,-0.97513 0.78042,-0.65035 1.28443,-1.60969 1.51205,-2.87787 l 4.73098,-26.68054 h -3.36517 l -3.56102,21.31498 -3.80442,-21.31498 z m 16.77934,0 v 23.65644 h 3.36517 v -17.36431 h -0.19482 v -3.31711 c 0,-0.5528 0.0648,-1.01991 0.19482,-1.40199 v -1.57303 z m 3.36517,1.57303 v 0.96325 0.34158 1.75597 c 0,-0.65035 0.13002,-1.10567 0.39016,-1.36581 0.26014,-0.26013 0.68334,-0.39016 1.26865,-0.39016 h 1.95079 c 0.65034,0 1.05697,0.0974 1.21956,0.29249 0.1951,0.16259 0.29249,0.56922 0.29249,1.21957 v 19.26652 h 3.36569 v -17.36431 h -0.43925 v -3.26802 c 0,-0.36921 0.0815,-0.64797 0.14676,-0.94465 -0.16187,-0.4372 -0.37958,-0.81592 -0.68317,-1.10432 -0.61781,-0.65035 -1.57716,-0.97514 -2.87786,-0.97514 h -1.95078 c -0.84545,0 -1.54475,0.22741 -2.09755,0.68265 -0.26014,0.21136 -0.45542,0.5083 -0.58549,0.89038 z m 8.19485,0.50643 c 0.18489,0.49939 0.29249,1.08001 0.29249,1.77354 v 0.78083 c 0,-0.65035 0.13002,-1.10567 0.39015,-1.36581 0.26014,-0.26013 0.68283,-0.39016 1.26814,-0.39016 h 1.9513 c 0.65035,0 1.05647,0.0974 1.21905,0.29249 0.19511,0.16259 0.29301,0.56922 0.29301,1.21957 v 19.26652 h 3.36517 v -19.80344 c 0,-1.3007 -0.32531,-2.26004 -0.97565,-2.87786 -0.61783,-0.65035 -1.57666,-0.97514 -2.87735,-0.97514 h -1.9513 c -0.91049,0 -1.65848,0.22741 -2.24379,0.68265 -0.38985,0.30322 -0.60103,0.80509 -0.73122,1.39681 z m 12.92531,-2.07946 v 30.53354 h 3.36568 v -8.43825 c -0.13007,-0.39019 -0.19533,-0.86158 -0.19533,-1.41438 v -2.73162 l 0.19533,-0.0486 v -11.60859 h -0.19533 v -3.31711 c 0,-0.5528 0.0653,-1.01991 0.19533,-1.40199 v -1.57303 z m 3.36568,1.57303 v 0.76792 0.63407 1.65881 c 0,-0.65035 0.13002,-1.10567 0.39016,-1.36581 0.26014,-0.26013 0.68283,-0.39016 1.26814,-0.39016 h 1.9513 c 0.65035,0 1.05646,0.0974 1.21905,0.29249 0.1951,0.16259 0.293,0.56922 0.293,1.21957 v 6.48694 h 3.36517 v -7.02386 c 0,-1.3007 -0.32479,-2.26004 -0.97513,-2.87786 -0.61783,-0.65035 -1.57717,-0.97514 -2.87786,-0.97514 h -1.9513 c -0.84546,0 -1.54423,0.22741 -2.09703,0.68265 -0.26014,0.21136 -0.45543,0.5083 -0.5855,0.89038 z m 0,20.52226 c 0.13007,0.39021 0.32536,0.69946 0.5855,0.92708 0.5528,0.42273 1.25157,0.63407 2.09703,0.63407 h 1.9513 c 1.30069,0 2.26003,-0.30925 2.87786,-0.92708 0.65034,-0.65033 0.97513,-1.62573 0.97513,-2.92643 v -7.07244 h -3.36517 v 6.53604 c 0,0.61783 -0.0979,1.02394 -0.293,1.21904 -0.16259,0.1951 -0.5687,0.29301 -1.21905,0.29301 h -1.9513 c -0.58531,0 -1.008,-0.13002 -1.26814,-0.39016 -0.26014,-0.26014 -0.39016,-0.71545 -0.39016,-1.36581 z m 16.24242,-22.09529 c -1.3007,0 -2.2761,0.32531 -2.92643,0.97565 -0.61784,0.61783 -0.92708,1.57665 -0.92708,2.87735 v 10.09706 h 3.31711 v -9.56014 c 0,-0.65035 0.0974,-1.05698 0.29249,-1.21957 0.1951,-0.1951 0.60173,-0.29249 1.21956,-0.29249 h 1.36581 v -2.87786 z m 2.63395,0 v 2.87786 h 1.36581 c 0.65034,0 1.05646,0.0974 1.21904,0.29249 0.19511,0.16259 0.29301,0.56922 0.29301,1.21957 v 9.95029 h 3.31659 v -10.48721 c 0,-1.3007 -0.3253,-2.26004 -0.97565,-2.87786 -0.61783,-0.65035 -1.57717,-0.97514 -2.87786,-0.97514 z m 13.70614,0 c -1.3007,0 -2.27609,0.32531 -2.92644,0.97565 -0.61782,0.61783 -0.92707,1.57665 -0.92707,2.87735 v 5.60947 c 0,1.3007 0.30925,2.27609 0.92707,2.92644 0.65035,0.61783 1.62574,0.92708 2.92644,0.92708 h 2.39003 c 0.65035,0 1.05647,0.0974 1.21905,0.29248 0.19511,0.16259 0.29301,0.56922 0.29301,1.21957 v 4.48706 c 0,0.61784 -0.0979,1.02447 -0.29301,1.21957 -0.16258,0.1951 -0.5687,0.29249 -1.21905,0.29249 h -1.31723 c -0.61782,0 -1.02394,-0.0974 -1.21904,-0.29249 -0.19511,-0.1951 -0.29301,-0.60173 -0.29301,-1.21957 v -1.90221 h -3.31659 v 2.39004 c 0,1.3007 0.30873,2.2761 0.92656,2.92643 0.65034,0.61783 1.62626,0.92708 2.92695,0.92708 h 3.26802 c 1.30068,0 2.25951,-0.30925 2.87734,-0.92708 0.65035,-0.65033 0.97565,-1.62573 0.97565,-2.92643 v -5.46272 c 0,-1.3007 -0.3253,-2.26003 -0.97565,-2.87786 -0.61783,-0.65034 -1.57666,-0.97565 -2.87734,-0.97565 h -2.39004 c -0.61783,0 -1.02446,-0.0974 -1.21956,-0.29249 -0.19511,-0.1951 -0.29301,-0.60174 -0.29301,-1.21956 v -4.63383 c 0,-0.65034 0.0979,-1.05646 0.29301,-1.21904 0.1951,-0.19511 0.60173,-0.29301 1.21956,-0.29301 h 1.36529 c 0.65035,0 1.05698,0.0979 1.21957,0.29301 0.1951,0.16258 0.29248,0.5687 0.29248,1.21904 v 1.90221 h 3.31711 v -2.39003 c 0,-1.3007 -0.3253,-2.25952 -0.97565,-2.87735 -0.61782,-0.65034 -1.57716,-0.97565 -2.87786,-0.97565 z m 11.12077,0 v 23.65644 h 3.36568 v -23.65644 z m 7.7556,0 v 19.80293 c 0,1.3007 0.30872,2.2761 0.92656,2.92643 0.65033,0.61783 1.62574,0.92708 2.92643,0.92708 h 1.9513 c 0.84546,0 1.52818,-0.21134 2.04846,-0.63407 0.29225,-0.24068 0.49632,-0.58575 0.63407,-1.00821 v -0.894 -0.34158 -1.75597 c 0,0.65036 -0.13002,1.10567 -0.39016,1.36581 -0.26014,0.26014 -0.68283,0.39016 -1.26814,0.39016 h -1.95078 c -0.61784,0 -1.02447,-0.0974 -1.21957,-0.29249 -0.1951,-0.19511 -0.29249,-0.60173 -0.29249,-1.21956 v -19.26653 z m 8.48682,22.01416 v 1.64228 h 3.36568 v -23.65644 h -3.36568 v 17.36432 h 0.19533 v 3.31659 c 0,0.52109 -0.0725,0.95664 -0.19533,1.33325 z m 7.7556,-22.01416 v 23.65644 h 3.36568 v -17.36431 h -0.19533 v -3.31711 c 0,-0.5528 0.0653,-1.01991 0.19533,-1.40199 v -1.57303 z m 3.36568,1.57303 v 0.96325 0.34158 1.75597 c 0,-0.65035 0.13002,-1.10567 0.39016,-1.36581 0.26014,-0.26013 0.68283,-0.39016 1.26814,-0.39016 h 1.95078 c 0.65035,0 1.05698,0.0974 1.21957,0.29249 0.1951,0.16259 0.29249,0.56922 0.29249,1.21957 v 19.26652 h 3.36568 v -17.36431 h -0.43873 v -3.26802 c 0,-0.3692 0.081,-0.64797 0.14624,-0.94465 -0.16187,-0.43719 -0.37958,-0.81541 -0.68316,-1.10381 -0.61782,-0.65034 -1.57664,-0.97565 -2.87734,-0.97565 h -1.9513 c -0.84546,0 -1.54476,0.22741 -2.09755,0.68265 -0.26014,0.21136 -0.45491,0.5083 -0.58498,0.89038 z m 8.19433,0.50643 c 0.18491,0.4994 0.29249,1.07999 0.29249,1.77354 v 0.78083 c 0,-0.65035 0.13003,-1.10567 0.39016,-1.36581 0.26014,-0.26013 0.68283,-0.39016 1.26814,-0.39016 h 1.9513 c 0.65035,0 1.05646,0.0974 1.21905,0.29249 0.19511,0.16259 0.293,0.56922 0.293,1.21957 v 19.26652 h 3.36569 v -19.80344 c 0,-1.3007 -0.3253,-2.25952 -0.97565,-2.87735 -0.61783,-0.65034 -1.57716,-0.97565 -2.87786,-0.97565 h -1.9513 c -0.91049,0 -1.65796,0.22741 -2.24328,0.68265 -0.38985,0.30322 -0.60155,0.80507 -0.73174,1.39681 z m -57.50708,14.69936 v 2.48771 c 0,0.61783 -0.0979,1.02394 -0.29301,1.21904 -0.16258,0.1951 -0.5687,0.29301 -1.21904,0.29301 h -1.51205 v 2.87786 h 2.48718 c 1.30069,0 2.26003,-0.30925 2.87786,-0.92708 0.65035,-0.65033 0.97565,-1.62573 0.97565,-2.92643 v -3.02411 z m -9.36532,0.0491 v 2.97501 c 0,1.3007 0.30924,2.2761 0.92708,2.92643 0.65033,0.61783 1.62573,0.92708 2.92643,0.92708 h 1.99988 v -2.87786 h -1.02423 c -0.61783,0 -1.02446,-0.0974 -1.21956,-0.29249 -0.19511,-0.19511 -0.29249,-0.60173 -0.29249,-1.21956 v -2.43861 z m -206.37138,0.29248 v 2.14613 c 0,0.61783 -0.0979,1.02445 -0.29301,1.21956 -0.16258,0.1951 -0.56871,0.29249 -1.21904,0.29249 h -1.1219 v 2.87786 h 2.14612 c 1.30069,0 2.26003,-0.30925 2.87786,-0.92708 0.65035,-0.65033 0.97565,-1.62573 0.97565,-2.92643 v -2.68253 z m 66.87188,0 v 2.14613 c 0,0.61783 -0.0974,1.02445 -0.29248,1.21956 -0.16259,0.1951 -0.56922,0.29249 -1.21957,0.29249 h -1.12189 v 2.87786 h 2.14612 c 1.30069,0 2.26003,-0.30925 2.87786,-0.92708 0.65035,-0.65033 0.97565,-1.62573 0.97565,-2.92643 v -2.68253 z m 37.89898,6.63371 v 2.39003 c 0,0.61784 -0.0974,1.02394 -0.29249,1.21905 -0.16257,0.1951 -0.56921,0.29301 -1.21956,0.29301 h -6.24303 v 2.87734 h 7.26726 c 1.3007,0 2.26003,-0.3248 2.87786,-0.97513 0.65035,-0.61783 0.97565,-1.57717 0.97565,-2.87787 v -2.92643 z"
       sodipodi:nodetypes="ccccccccccccsccccscccccccccsssssccscssccccssssccscsssccsssccscsscsscccccccccsscsssssscssssscsssssccscsscsscccccccccsscssccccccccccccccccccccccccccccsssscsscsscssssccscssssscssssscsscsccscssccccccccccscsccscsccccsssccscscsssscsscsscssssccscssssscssssscsscsccscssccccccccccccscsccsssccccccccccccccccccscsccsssccccccsscsscssssscscscsscccccssssscccccccccacsssscsccsssccccscsccscccccccccscsccscsccccccscccccccssscsccscssccsssscsccsssccccscsccscccccccccscsccscscsssscsscsscssssccscssssscssssscsscsccscsscccccsssccscssscccccsscsccccsccccccccsssssccscsscccccccscccccccssscsccscssccccccssccsscccccccccccscccccccssscsccccsccsscccscssscsccscssscccccsccccscccccccssscsccscssccccssssccscsssccsssccscsccsccscsccscscsssscsscsscssssccscssssscssssscsscsccscssccccccscsscccccssssscccccccccsccccccscccccccssscsccccsccsscccscssscsccscsssccscsccssscccscsccssscccscsccssscccscsccssscccscsccscscc" />
    <text
       xml:space="preserve"
       style="font-weight:600;font-size:74.8853px;line-height:0.9;font-family:Urbanist;-inkscape-font-specification:'Urbanist Semi-Bold';text-align:center;letter-spacing:0px;text-anchor:middle;fill:#034c8b;fill-rule:evenodd;stroke-width:0.529168;stroke-linecap:round"
       x="141.37729"
       y="290.40292"
       id="text3"><tspan
         sodipodi:role="line"
         id="tspan3"
         style="font-style:normal;font-variant:normal;font-weight:bold;font-stretch:normal;font-family:Urbanist;-inkscape-font-specification:'Urbanist Bold';stroke-width:0.529168"
         x="150.36351"
         y="290.40292">2024 </tspan></text>
    <text
       xml:space="preserve"
       transform="scale(0.26458333)"
       id="text4"
       style="font-style:normal;font-variant:normal;font-weight:800;font-stretch:normal;font-size:106.667px;line-height:0.9;font-family:Urbanist;-inkscape-font-specification:'Urbanist Ultra-Bold';text-align:center;letter-spacing:0px;white-space:pre;shape-inside:url(#rect4);display:inline;fill:#034c8b;fill-rule:evenodd;stroke-width:2;stroke-linecap:round" />
    <text
       xml:space="preserve"
       transform="scale(0.26458333)"
       id="text5"
       style="font-style:normal;font-variant:normal;font-weight:800;font-stretch:normal;font-size:106.667px;line-height:0.9;font-family:Urbanist;-inkscape-font-specification:'Urbanist Ultra-Bold';text-align:center;letter-spacing:0px;white-space:pre;shape-inside:url(#rect5);display:inline;fill:#034c8b;fill-rule:evenodd;stroke-width:2;stroke-linecap:round" />
    <path
       style="fill:#000000;fill-opacity:0;fill-rule:evenodd;stroke:#cfa715;stroke-width:6;stroke-linecap:round;stroke-dasharray:none;stroke-opacity:1;marker-end:url(#DartArrow)"
       d="M 51.768117,411.77395 H 199.72659"
       id="path1" />
  </g>
</svg>
